<svg xmlns="http://www.w3.org/2000/svg" viewBox="0 0 500 500"><g id="freepik--background-simple--inject-226"><path d="M431,339s39-108-3-202S279,23,227,40,147,146,119,188,23,281,51,346s99,45,141,75,91,53,148,33S418,379,431,339Z" style="fill:#92E3A9"></path><path d="M431,339s39-108-3-202S279,23,227,40,147,146,119,188,23,281,51,346s99,45,141,75,91,53,148,33S418,379,431,339Z" style="fill:#fff;opacity:0.7000000000000001"></path></g><g id="freepik--Hearts--inject-226"><path d="M381.72,153.66a13.32,13.32,0,0,0-24-10.41,13.33,13.33,0,0,0-26.18-1c-1.9,8.38,2.4,16.67,7.43,23.09,1,1.29,11.11,16.68,9.78,17.91C358.85,173.86,378.15,169.41,381.72,153.66Z" style="fill:#92E3A9"></path><path d="M172.63,174.71a6.6,6.6,0,0,0-12.7,2.61,6.6,6.6,0,0,0-10.88,7.05c1.61,3.94,5.71,6.07,9.57,7.25.78.23,9.25,3.6,9.06,4.47C169.1,189.4,175.66,182.11,172.63,174.71Z" style="fill:#92E3A9"></path><path d="M333.2,449.92a6.59,6.59,0,0,0-9-9.35,6.6,6.6,0,0,0-11.77-5.46c-2.47,3.47-2.09,8.07-1,12,.22.78,1.88,9.74,1,10.05C318.89,454.76,328.56,456.42,333.2,449.92Z" style="fill:#92E3A9"></path><path d="M347.77,60.55a6.59,6.59,0,0,0-12.44-3.63,6.6,6.6,0,0,0-12.92,1.14c-.41,4.23,2.21,8,5.08,10.88.57.57,6.48,7.51,5.9,8.19C337.79,71.88,347,68.5,347.77,60.55Z" style="fill:#92E3A9"></path><path d="M409.13,398.05a6.59,6.59,0,0,0-12.44-3.63,6.59,6.59,0,0,0-12.91,1.14c-.42,4.23,2.2,8,5.07,10.88.57.57,6.48,7.5,5.91,8.19C399.15,409.38,408.35,406,409.13,398.05Z" style="fill:#92E3A9"></path><path d="M139,344.83a4.46,4.46,0,0,0-8.41-2.45,4.45,4.45,0,0,0-8.72.77c-.28,2.86,1.49,5.43,3.42,7.35.39.38,4.39,5.07,4,5.53C132.27,352.48,138.49,350.2,139,344.83Z" style="fill:#92E3A9"></path></g><g id="freepik--Hand--inject-226"><path d="M478.82,319.6l-60.64-11.14s-10.72,2.48-23.51,4.13a83.82,83.82,0,0,1-32.17-2.48c-7.43-2.06-21.86-5.36-24.75-5.77s-17.74,3.71-23.92,7c-3.1,1.65-4.73.86-5.6-.35a3.84,3.84,0,0,1,.17-4.47,25.87,25.87,0,0,1,6.66-6.32c5.7-3.56,21-9.07,21-9.07L334,286.19s-17.33.83-21.45,2.06S294.85,294,292.38,294s-6.6,0-7-3.3,18.56-13.2,23.92-14.85l16.09-4.95H308.46c-1.65,0-27.22,3.3-33.82.41s-5.36-4.95-1.65-7,27.64-6.6,31.76-7.43,29.7-.41,29.7-.41-17.74-6.6-23.51-8.25-18.56-1.23-26.4-2.88-7.84-9.49,1.24-10.32,61.46,1.24,70.94,2.48,59.4,26,59.4,26l7.42,2.07L485,268.45" style="fill:#fff;stroke:#263238;stroke-linecap:round;stroke-linejoin:round"></path><path d="M375.7,253.6s-30.11,7.84-33,8.67-13.61,0-19.39,0-8.66,2.06-6.6,7,11.55,10.72,19.8,12.37,19.39-3.71,26-.82,8.66,9.49,25.57,14.85,32.17-2.89,32.17-2.89" style="fill:#fff;stroke:#263238;stroke-linecap:round;stroke-linejoin:round"></path><path d="M319.55,263.57a9.27,9.27,0,0,0,2.68,6.24c2.67,2.46,8.47,1.79,8.47,1.79a21.81,21.81,0,0,0,0-4,10.29,10.29,0,0,0-1.34-3.57A20.59,20.59,0,0,0,319.55,263.57Z" style="fill:#92E3A9;stroke:#263238;stroke-linecap:round;stroke-linejoin:round"></path><path d="M336.72,293.23s-.22,0,2.23,2,3.35,7.58,3.35,7.58" style="fill:none;stroke:#263238;stroke-linecap:round;stroke-linejoin:round"></path><path d="M354.34,244.16s-.44,10,1.56,14.28" style="fill:none;stroke:#263238;stroke-linecap:round;stroke-linejoin:round"></path><path d="M365.72,282.75s2.45,10.7,7.13,16.5" style="fill:none;stroke:#263238;stroke-linecap:round;stroke-linejoin:round"></path></g><g id="freepik--Card--inject-226"><path d="M220.47,349.63s-24.67,2.22-29.26,3.79-13.17,5.13-16.68,8.21-26.82,23.17-26.82,23.17l-15.06,4.49,5.2,48.8,25.64-8s23.54-1.42,34.66-.23,23.1-4.82,23.1-4.82,7.62-1.73,9.88-3.35,5.4-10.42,5.4-10.42,5.56-1.41,7.17-5.13A56.24,56.24,0,0,0,247.05,392a23.18,23.18,0,0,0-.65-6.1s2.2-21.28-.23-28.67S220.47,349.63,220.47,349.63Z" style="fill:#fff;stroke:#263238;stroke-linecap:round;stroke-linejoin:round"></path><path d="M247.05,392A30.85,30.85,0,0,0,236,390.49c-6,.33-31.31-1.88-32.66.23s-3.62,7.72-1.08,10.47S233.07,408,233.07,408s3.46,1.24,3.46,3.24" style="fill:none;stroke:#263238;stroke-linecap:round;stroke-linejoin:round"></path><path d="M202.24,401.19s-5.45-3.24-6.75.54-4.85,9.18,3.52,12.91,25.7,5.6,25.7,5.6" style="fill:none;stroke:#263238;stroke-linecap:round;stroke-linejoin:round"></path><path d="M211.32,418.68s5.18,4.86,8.75,5.45" style="fill:none;stroke:#263238;stroke-linecap:round;stroke-linejoin:round"></path><path d="M194.12,406.81s.35,1.75,3,3.26a14.8,14.8,0,0,0,3.94,1.71,5.39,5.39,0,0,0,1.75-2.88,34.77,34.77,0,0,0,.71-5.58" style="fill:none;stroke:#263238;stroke-linecap:round;stroke-linejoin:round"></path><path d="M201.79,398.8a9.44,9.44,0,0,0,3.9,1.91,23.88,23.88,0,0,0,4.18.28,5.9,5.9,0,0,0,2.09-3.67c.41-2.46-1.06-5-2.09-5.2s-4.73-.79-6.27-.41" style="fill:none;stroke:#263238;stroke-linecap:round;stroke-linejoin:round"></path><path d="M232.17,411.66s.17,2.78-.68,4.11a27.59,27.59,0,0,1-2.16,2.81s3.39-.07,4.35-5.82" style="fill:none;stroke:#263238;stroke-linecap:round;stroke-linejoin:round"></path><polygon points="238.55 328.65 210.33 325.82 219.95 403.26 238.55 328.65" style="fill:#fff;stroke:#263238;stroke-linecap:round;stroke-linejoin:round"></polygon><polygon points="215.03 323.33 219.95 403.26 360.58 411.56 349.8 336.06 215.03 323.33" style="fill:#fff;stroke:#263238;stroke-linecap:round;stroke-linejoin:round"></polygon><path d="M253.5,366.25c-4.81,1.65-6.11,6.49-2.9,10.8a14.24,14.24,0,0,0,11,5.38c-2.39,2.25-2.6,5.86-.13,9.17,3.21,4.32,9.71,6.48,14.53,4.83,5.61-1.93,7.64-7.06,8.25-11.92.13-1,2.7-11.61,4.12-11.34C277.46,371.16,264.05,362.63,253.5,366.25Z" style="fill:#92E3A9"></path><path d="M277.77,342.05c-3.93-1.79-8.26-1-9.68,1.84-1.09,2.15-.14,4.85,2.14,6.81-3-.47-5.83.5-6.92,2.66-1.42,2.81.62,6.55,4.55,8.35,4.59,2.1,9.55,1.54,13.52.38.79-.23,10.17-2.17,10.77-1.41C287.55,354.91,286.39,346,277.77,342.05Z" style="fill:#92E3A9"></path><path d="M277,357.75c-3.56-.59-6.4,1.19-6.35,4,0,2.14,1.78,4.24,4.19,5.37-2.38.33-4.05,1.87-4,4,.05,2.78,3,5.51,6.54,6.1a12.48,12.48,0,0,0,10-3c.49-.39,6.57-4.38,7.3-3.88C289.05,366.47,284.76,359,277,357.75Z" style="fill:#263238"></path><path d="M250.12,349.94c-3.56-.58-6.4,1.2-6.35,4,0,2.13,1.78,4.24,4.19,5.37-2.38.33-4.05,1.87-4,4,.05,2.78,3,5.51,6.54,6.1a12.47,12.47,0,0,0,10-3c.49-.4,6.57-4.38,7.3-3.88C262.22,358.66,257.93,351.23,250.12,349.94Z" style="fill:#263238"></path><path d="M281.28,380.48c-1.78,1.19-1.65,3.56.29,5.29a6.43,6.43,0,0,0,5.31,1.53c-.68,1.26-.26,3,1.22,4.28,1.94,1.73,4.95,2.16,6.73,1,2.07-1.39,2.21-4,1.78-6.28-.08-.47-.49-5.65.14-5.65C291.94,380.64,285.17,377.85,281.28,380.48Z" style="fill:#263238"></path><polygon points="334.67 362.78 337.98 383.54 298.81 380.51 295.51 359.75 334.67 362.78" style="fill:#263238"></polygon><polygon points="330.78 382.99 331.61 383.05 331.25 380.79 330.42 380.73 330.78 382.99" style="fill:#fff"></polygon><polygon points="316.29 381.86 317.12 381.93 316.76 379.67 315.93 379.6 316.29 381.86" style="fill:#fff"></polygon><polygon points="311.46 381.49 312.29 381.55 311.93 379.29 311.1 379.23 311.46 381.49" style="fill:#fff"></polygon><polygon points="306.63 381.11 307.46 381.18 307.1 378.92 306.27 378.86 306.63 381.11" style="fill:#fff"></polygon><polygon points="301.8 380.74 302.63 380.81 302.27 378.55 301.44 378.48 301.8 380.74" style="fill:#fff"></polygon><polygon points="325.95 382.61 326.78 382.68 326.42 380.42 325.59 380.35 325.95 382.61" style="fill:#fff"></polygon><polygon points="337.62 381.29 337.51 380.62 335.98 380.5 336.08 381.17 337.62 381.29" style="fill:#fff"></polygon><polygon points="335.61 383.36 336.44 383.43 336.08 381.17 335.25 381.1 335.61 383.36" style="fill:#fff"></polygon><polygon points="321.12 382.24 321.95 382.3 321.59 380.04 320.76 379.98 321.12 382.24" style="fill:#fff"></polygon><polygon points="311.82 378.63 311.93 379.29 315.93 379.6 315.82 378.94 311.82 378.63" style="fill:#fff"></polygon><polygon points="298.35 377.58 298.45 378.25 301.44 378.48 301.33 377.81 298.35 377.58" style="fill:#fff"></polygon><polygon points="321.49 379.38 321.59 380.04 325.59 380.35 325.48 379.68 321.49 379.38" style="fill:#fff"></polygon><polygon points="326.32 379.75 326.42 380.42 330.42 380.73 330.31 380.06 326.32 379.75" style="fill:#fff"></polygon><polygon points="316.65 379 316.76 379.67 320.76 379.98 320.65 379.31 316.65 379" style="fill:#fff"></polygon><polygon points="331.15 380.12 331.25 380.79 335.25 381.1 335.14 380.43 331.15 380.12" style="fill:#fff"></polygon><path d="M299.33,360l-.84-.06.38,2.35-3-.23.1.66,3,.24.51,3.2-3-.23.11.67,3,.23.51,3.2-3-.23.1.67,3,.23.5,3.2-3-.23.11.67,3,.23.51,3.2.83.07-.51-3.21,4,.31.51,3.21.83.06-.5-3.2,4,.31.51,3.2.84.07-.51-3.21,4,.31.51,3.21.84.06-.51-3.2,4,.31.51,3.2.84.06-.51-3.2,4,.31.51,3.2.84.07-.51-3.2,4,.31.51,3.2.84.06-.51-3.2,4,.31.51,3.2.84.07-.51-3.21,1.53.12-.11-.66-1.53-.12-.51-3.21,1.54.12-.11-.67-1.53-.11-.51-3.21,1.53.12-.11-.67-1.53-.12-.51-3.2,1.53.12-.1-.67-1.53-.12-.38-2.35-.83-.06.37,2.35-4-.31-.37-2.35-.83-.07.37,2.35-4-.31-.37-2.35-.83-.06.37,2.35-4-.31-.37-2.35-.83-.07.37,2.36-4-.31-.37-2.36-.83-.06.37,2.35-4-.31-.37-2.35-.83-.06.37,2.35-4-.31-.37-2.35-.83-.07.37,2.35-4-.31Zm1.09,6.89,4,.31.51,3.2-4-.3Zm23.83,5-4-.31-.5-3.2,4,.31Zm.33-3.14,4,.31.51,3.21-4-.31Zm-5.16,2.77-4-.31-.5-3.21,4,.31Zm-4.83-.38-4-.31-.51-3.2,4,.31Zm-4.83-.37-4-.31-.51-3.2,4,.31ZM301.55,374,301,370.8l4,.31.51,3.21Zm4.83.37-.51-3.2,4,.31.51,3.2Zm4.83.38-.51-3.21,4,.31.51,3.2Zm4.83.37-.51-3.2,4,.31.51,3.2Zm4.83.37-.51-3.2,4,.31.51,3.2Zm4.83.38-.51-3.21,4,.31.51,3.21Zm8.83.68-4-.31-.51-3.2,4,.31Zm-.62-3.87-4-.31-.51-3.2,4,.31Zm-1.12-7.07.51,3.2-4-.31-.51-3.2Zm-4.83-.38.51,3.2-4-.3-.51-3.21Zm-4.83-.37.51,3.2-4-.31-.51-3.2Zm-4.83-.38.51,3.21-4-.31-.51-3.21Zm-4.83-.37.51,3.2-4-.31-.51-3.2Zm-4.83-.38.51,3.21-4-.31-.51-3.21Zm-4.83-.37.5,3.2-4-.31-.51-3.2Z" style="fill:#fff"></path><polygon points="307 378.25 307.1 378.92 311.1 379.23 310.99 378.56 307 378.25" style="fill:#fff"></polygon><polygon points="302.16 377.88 302.27 378.55 306.27 378.86 306.16 378.19 302.16 377.88" style="fill:#fff"></polygon><path d="M181.87,361.52s19.71-6.38,24.29-5.95,19,4.15,23.44,5.23,10.69-.22,10,3.67-4.64,7.88-9.23,9.45-10.09.65-12.95-.16-7.73-1.62-7.73-1.62l-6.31,5.94s-8.52,15.23-17.7,20.36-20,4-20,4" style="fill:#fff;stroke:#263238;stroke-linecap:round;stroke-linejoin:round"></path><path d="M228.28,361.39s.58.31.41,1.34l-.58,3.49s.51.72,3.77,1.47,5.61.51,6.88-.75" style="fill:none;stroke:#263238;stroke-linecap:round;stroke-linejoin:round"></path><path d="M211.84,358.66a24.13,24.13,0,0,1,.79,5.41,26.34,26.34,0,0,1-.1,3.15,11.82,11.82,0,0,0,1.33-8" style="fill:none;stroke:#263238;stroke-linecap:round;stroke-linejoin:round"></path><path d="M209.58,358.28a9.06,9.06,0,0,0,.48,4.73" style="fill:none;stroke:#263238;stroke-linecap:round;stroke-linejoin:round"></path><polygon points="141.52 385.03 151.16 449.17 127.45 453.69 116.91 389.82 141.52 385.03" style="fill:#fff;stroke:#263238;stroke-linecap:round;stroke-linejoin:round"></polygon><path d="M28.08,478.85l108-15.31-10.32-78.48L19.94,391.52s3.8,15.79,3.93,46.61C24,468.13,28.08,478.85,28.08,478.85Z" style="fill:#263238"></path><polyline points="28.08 478.85 136.04 463.54 125.72 385.06 19.94 391.52" style="fill:none;stroke:#263238;stroke-linecap:round;stroke-linejoin:round"></polyline></g><g id="freepik--Flowers--inject-226"><path d="M165.09,118.19s8.35,7.35,17.89,9.14,19.67,3.57,19.67,3.57l44.7,70.34s-19.07,4.17-28.61-1.19-28.61-40.54-28.61-40.54Z" style="fill:#fff;stroke:#263238;stroke-linecap:round;stroke-linejoin:round"></path><path d="M235,51.43l7.16-12.72s44.9,34.57,60.8,53.65,13.51,21.85,9.93,31.39-30.2,31.39-30.2,31.39,4-8.74,0-29-9.14-39.73-27-54.44S235,51.43,235,51.43Z" style="fill:#fff;stroke:#263238;stroke-linecap:round;stroke-linejoin:round"></path><path d="M169.07,106.66s-9.14-13.91-9.14-20.26,9.14-35.77,13.51-50.47S177.81,20,177.81,20s24.64,13.12,42.92,19.48,52.45,27,66.36,44.9,6,47.69,3.18,53.25-35.76,29.4-42.92,33.78-20.66,13.11-20.66,13.11a77.87,77.87,0,0,1-15.9-12.32C204,165.08,169.07,106.66,169.07,106.66Z" style="fill:#fff;stroke:#263238;stroke-linecap:round;stroke-linejoin:round"></path><path d="M240.14,169.55a150,150,0,0,1-26.51-8.15c-13.26-5.61-28.85-28.5-28.85-28.5l35,16.26s-24-18.87-27-29.07a125.49,125.49,0,0,1-4.08-21.41l25.5,18.86s-9.18-12.23-11.22-27S199.86,62,199.86,62,208,78.79,216.69,90s20.39,33.14,20.39,33.14l-7.64-55.07s14.78,13.77,17.84,24.48,1.53,24,3.06,22.43,21-23.59,21-23.59-6.16,29.2-8.71,34.81S258,135.9,258,135.9s12.24-10.71,23.46-13.26S315.61,113,315.61,113s-20.4,15.3-27.53,20.4-36.72,22.44-36.72,22.44l30.89-15.43S262.07,168.53,240.14,169.55Z" style="fill:#92E3A9"></path><path d="M240.14,169.55a150,150,0,0,1-26.51-8.15c-13.26-5.61-28.85-28.5-28.85-28.5l35,16.26s-24-18.87-27-29.07a125.49,125.49,0,0,1-4.08-21.41l25.5,18.86s-9.18-12.23-11.22-27S199.86,62,199.86,62,208,78.79,216.69,90s20.39,33.14,20.39,33.14l-7.64-55.07s14.78,13.77,17.84,24.48,1.53,24,3.06,22.43,21-23.59,21-23.59-6.16,29.2-8.71,34.81S258,135.9,258,135.9s12.24-10.71,23.46-13.26S315.61,113,315.61,113s-20.4,15.3-27.53,20.4-36.72,22.44-36.72,22.44l30.89-15.43S262.07,168.53,240.14,169.55Z" style="opacity:0.36"></path><path d="M290,81.18c-1-1-35.91,40-43.08,92.21" style="fill:none;stroke:#263238;stroke-linecap:round;stroke-linejoin:round;stroke-width:2px"></path><path d="M288.72,84.24a11.33,11.33,0,0,1-2.46-10.48c1.68-6.31,15.54-17.85,19.65-18.82s6.67,3.17,5.59,7-5.09,17-9.6,19.62S288.72,84.24,288.72,84.24Z" style="fill:#fff;stroke:#263238;stroke-linecap:round;stroke-linejoin:round"></path><path d="M308.14,56a76.6,76.6,0,0,1-5,14.18c-3,5.83-11.18,12.89-14.46,14.06" style="fill:none;stroke:#263238;stroke-linecap:round;stroke-linejoin:round"></path><line x1="303.18" y1="70.18" x2="311.55" y2="58.75" style="fill:none;stroke:#263238;stroke-linecap:round;stroke-linejoin:round"></line><path d="M250.09,175.92c-4.86-54.69,4.71-102.1,6-101.6" style="fill:none;stroke:#263238;stroke-linecap:round;stroke-linejoin:round;stroke-width:2px"></path><path d="M254.34,79a11.3,11.3,0,0,1-6.15-8.83c-.77-6.48,7.85-22.33,11.32-24.75s7.36.49,7.76,4.43,1.54,17.66-1.68,21.77S254.34,79,254.34,79Z" style="fill:#fff;stroke:#263238;stroke-linecap:round;stroke-linejoin:round"></path><path d="M262,45.57a75.69,75.69,0,0,1,.63,15C262,67.1,257,76.69,254.34,79" style="fill:none;stroke:#263238;stroke-linecap:round;stroke-linejoin:round"></path><line x1="262.59" y1="60.58" x2="266.15" y2="46.87" style="fill:none;stroke:#263238;stroke-linecap:round;stroke-linejoin:round"></line><path d="M271.58,87.47c-1.25-.61-14.72,45.85-14.41,100.75" style="fill:none;stroke:#263238;stroke-linecap:round;stroke-linejoin:round;stroke-width:2px"></path><path d="M271.26,90.76a11.28,11.28,0,0,1-5.39-9.3c-.24-6.53,9.68-21.61,13.33-23.73s7.3,1.1,7.37,5.06.07,17.72-3.48,21.56S271.26,90.76,271.26,90.76Z" style="fill:#fff;stroke:#263238;stroke-linecap:round;stroke-linejoin:round"></path><path d="M281.63,58.1a76.19,76.19,0,0,1-.61,15c-1.15,6.44-7,15.58-9.76,17.64" style="fill:none;stroke:#263238;stroke-linecap:round;stroke-linejoin:round"></path><line x1="281.02" y1="73.12" x2="285.7" y2="59.74" style="fill:none;stroke:#263238;stroke-linecap:round;stroke-linejoin:round"></line><path d="M209.85,122.38S201.78,98.56,192.56,87,167.2,65.52,167.2,65.52s23.06,27.66,30,40.34,16.14,28.82,16.14,28.82Z" style="fill:#92E3A9"></path><path d="M243.49,84.27c1.34-.37,2.62,28.47-7.67,82.4" style="fill:none;stroke:#263238;stroke-linecap:round;stroke-linejoin:round;stroke-width:2px"></path><path d="M243.2,87.56a11.29,11.29,0,0,0,7-8.16c1.42-6.38-5.58-23-8.79-25.76s-7.38-.25-8.17,3.63-3.29,17.42-.5,21.84S243.2,87.56,243.2,87.56Z" style="fill:#fff;stroke:#263238;stroke-linecap:round;stroke-linejoin:round"></path><path d="M239,53.56a76.08,76.08,0,0,0-2.13,14.88c0,6.54,4,16.58,6.38,19.12" style="fill:none;stroke:#263238;stroke-linecap:round;stroke-linejoin:round"></path><line x1="236.82" y1="68.44" x2="234.65" y2="54.43" style="fill:none;stroke:#263238;stroke-linecap:round;stroke-linejoin:round"></line><path d="M252.38,174.25c-27.28-47.64-62.25-81.07-63-79.91" style="fill:none;stroke:#263238;stroke-linecap:round;stroke-linejoin:round;stroke-width:2px"></path><path d="M191.29,97a11.33,11.33,0,0,0,0-10.76c-3.08-5.77-19.21-13.83-23.44-13.83s-5.76,4.61-3.84,8.06,8.83,15.37,13.83,16.91S191.29,97,191.29,97Z" style="fill:#fff;stroke:#263238;stroke-linecap:round;stroke-linejoin:round"></path><path d="M165.93,74A76,76,0,0,0,174,86.65c4.22,5,13.83,10,17.29,10.38" style="fill:none;stroke:#263238;stroke-linecap:round;stroke-linejoin:round"></path><line x1="174" y1="86.65" x2="163.24" y2="77.43" style="fill:none;stroke:#263238;stroke-linecap:round;stroke-linejoin:round"></line><path d="M224.08,87.47c1.24-.61,14.72,45.85,14.41,100.75" style="fill:none;stroke:#263238;stroke-linecap:round;stroke-linejoin:round;stroke-width:2px"></path><path d="M224.39,90.76a11.28,11.28,0,0,0,5.4-9.3c.23-6.53-9.68-21.61-13.33-23.73s-7.3,1.1-7.37,5.06-.07,17.72,3.48,21.56S224.39,90.76,224.39,90.76Z" style="fill:#fff;stroke:#263238;stroke-linecap:round;stroke-linejoin:round"></path><path d="M214,58.1a76.56,76.56,0,0,0,.62,15c1.15,6.44,7,15.58,9.75,17.64" style="fill:none;stroke:#263238;stroke-linecap:round;stroke-linejoin:round"></path><line x1="214.64" y1="73.12" x2="209.96" y2="59.74" style="fill:none;stroke:#263238;stroke-linecap:round;stroke-linejoin:round"></line><path d="M242.14,174.55s-14.24-37.08-13.92-67.94" style="fill:none;stroke:#263238;stroke-linecap:round;stroke-linejoin:round"></path><path d="M225.7,110.59a1.93,1.93,0,1,1-2.19,1.64A1.93,1.93,0,0,1,225.7,110.59Z" style="fill:#fff;stroke:#263238;stroke-linecap:round;stroke-linejoin:round"></path><path d="M226.28,97.92A2.46,2.46,0,1,1,223.5,100,2.46,2.46,0,0,1,226.28,97.92Z" style="fill:#fff;stroke:#263238;stroke-linecap:round;stroke-linejoin:round"></path><path d="M228.5,104.62a1.75,1.75,0,1,1-2,1.49A1.75,1.75,0,0,1,228.5,104.62Z" style="fill:#fff;stroke:#263238;stroke-linecap:round;stroke-linejoin:round"></path><path d="M226.92,124.23a2.63,2.63,0,1,1-3,2.23A2.63,2.63,0,0,1,226.92,124.23Z" style="fill:#fff;stroke:#263238;stroke-linecap:round;stroke-linejoin:round"></path><path d="M229,114.61a1.93,1.93,0,1,1-2.18,1.64A1.93,1.93,0,0,1,229,114.61Z" style="fill:#fff;stroke:#263238;stroke-linecap:round;stroke-linejoin:round"></path><path d="M232.37,104.82a.72.72,0,0,1,.6.8.71.71,0,0,1-.8.59.69.69,0,0,1-.59-.79A.7.7,0,0,1,232.37,104.82Z" style="fill:#fff;stroke:#263238;stroke-linecap:round;stroke-linejoin:round"></path><path d="M231.08,134.75a1.58,1.58,0,1,1-1.79,1.33A1.56,1.56,0,0,1,231.08,134.75Z" style="fill:#fff;stroke:#263238;stroke-linecap:round;stroke-linejoin:round"></path><path d="M230.69,120.17a1.58,1.58,0,1,1-1.78,1.33A1.56,1.56,0,0,1,230.69,120.17Z" style="fill:#fff;stroke:#263238;stroke-linecap:round;stroke-linejoin:round"></path><path d="M225.79,94a1.4,1.4,0,1,1-1.59,1.18A1.4,1.4,0,0,1,225.79,94Z" style="fill:#fff;stroke:#263238;stroke-linecap:round;stroke-linejoin:round"></path><path d="M230.43,139.26a2.63,2.63,0,1,1-3,2.23A2.64,2.64,0,0,1,230.43,139.26Z" style="fill:#fff;stroke:#263238;stroke-linecap:round;stroke-linejoin:round"></path><path d="M236.42,146.85a3.33,3.33,0,1,1-3.77,2.82A3.33,3.33,0,0,1,236.42,146.85Z" style="fill:#fff;stroke:#263238;stroke-linecap:round;stroke-linejoin:round"></path><path d="M235,138.85a1.84,1.84,0,1,1-2.08,1.56A1.84,1.84,0,0,1,235,138.85Z" style="fill:#fff;stroke:#263238;stroke-linecap:round;stroke-linejoin:round"></path><path d="M234.16,125.63a1.58,1.58,0,1,1-1.79,1.33A1.58,1.58,0,0,1,234.16,125.63Z" style="fill:#fff;stroke:#263238;stroke-linecap:round;stroke-linejoin:round"></path><path d="M225.77,132.21a.88.88,0,1,1-1,.74A.88.88,0,0,1,225.77,132.21Z" style="fill:#fff;stroke:#263238;stroke-linecap:round;stroke-linejoin:round"></path><path d="M235.51,116.26a1.58,1.58,0,1,1-1.79,1.33A1.58,1.58,0,0,1,235.51,116.26Z" style="fill:#fff;stroke:#263238;stroke-linecap:round;stroke-linejoin:round"></path><path d="M235.77,159.5s23.57-55,35.52-68.1S295.4,73.13,295.4,73.13s-2.51,34.47-14.32,52.31S231,179.3,231,179.3Z" style="fill:#92E3A9"></path><path d="M239.87,163.41s-10.77-44-9.51-57.4S236.64,84,236.64,84s14.18,22,15.15,38.2-5.8,55.42-5.8,55.42Z" style="fill:#92E3A9"></path><path d="M300.1,108.46c-.64-1.23-22.63,17.48-55.09,61.75" style="fill:none;stroke:#263238;stroke-linecap:round;stroke-linejoin:round;stroke-width:2px"></path><path d="M297.88,110.92a11.32,11.32,0,0,1,1.21-10.69c3.71-5.38,20.65-11.58,24.85-11.11s5.21,5.23,2.91,8.45-10.51,14.28-15.65,15.24S297.88,110.92,297.88,110.92Z" style="fill:#fff;stroke:#263238;stroke-linecap:round;stroke-linejoin:round"></path><path d="M325.68,90.87a76.92,76.92,0,0,1-9.45,11.69c-4.76,4.48-14.87,8.37-18.35,8.36" style="fill:none;stroke:#263238;stroke-linecap:round;stroke-linejoin:round"></path><line x1="316.23" y1="102.56" x2="327.96" y2="94.6" style="fill:none;stroke:#263238;stroke-linecap:round;stroke-linejoin:round"></line><path d="M247.31,164s17.37-35.72,40.14-56.56" style="fill:none;stroke:#263238;stroke-linecap:round;stroke-linejoin:round"></path><path d="M282.82,108.36a1.93,1.93,0,1,1-2.69-.48A1.94,1.94,0,0,1,282.82,108.36Z" style="fill:#fff;stroke:#263238;stroke-linecap:round;stroke-linejoin:round"></path><path d="M292.47,100.13a2.46,2.46,0,1,1-3.42-.61A2.46,2.46,0,0,1,292.47,100.13Z" style="fill:#fff;stroke:#263238;stroke-linecap:round;stroke-linejoin:round"></path><path d="M289.1,106.33a1.76,1.76,0,1,1-2.44-.43A1.76,1.76,0,0,1,289.1,106.33Z" style="fill:#fff;stroke:#263238;stroke-linecap:round;stroke-linejoin:round"></path><path d="M273.69,118.57a2.63,2.63,0,1,1-3.66-.66A2.63,2.63,0,0,1,273.69,118.57Z" style="fill:#fff;stroke:#263238;stroke-linecap:round;stroke-linejoin:round"></path><path d="M282.14,113.53a1.93,1.93,0,1,1-2.68-.48A1.92,1.92,0,0,1,282.14,113.53Z" style="fill:#fff;stroke:#263238;stroke-linecap:round;stroke-linejoin:round"></path><path d="M291.59,109.3a.7.7,0,0,1-.17,1,.7.7,0,1,1,.17-1Z" style="fill:#fff;stroke:#263238;stroke-linecap:round;stroke-linejoin:round"></path><path d="M268.84,128.78a1.58,1.58,0,1,1-2.19-.39A1.57,1.57,0,0,1,268.84,128.78Z" style="fill:#fff;stroke:#263238;stroke-linecap:round;stroke-linejoin:round"></path><path d="M279.23,118.55a1.58,1.58,0,1,1-2.19-.39A1.56,1.56,0,0,1,279.23,118.55Z" style="fill:#fff;stroke:#263238;stroke-linecap:round;stroke-linejoin:round"></path><path d="M295,97.07a1.39,1.39,0,0,1-.35,2,1.4,1.4,0,1,1-1.6-2.3A1.39,1.39,0,0,1,295,97.07Z" style="fill:#fff;stroke:#263238;stroke-linecap:round;stroke-linejoin:round"></path><path d="M265.1,131.39a2.63,2.63,0,1,1-3.66-.66A2.63,2.63,0,0,1,265.1,131.39Z" style="fill:#fff;stroke:#263238;stroke-linecap:round;stroke-linejoin:round"></path><path d="M263.65,141a3.33,3.33,0,1,1-4.64-.83A3.34,3.34,0,0,1,263.65,141Z" style="fill:#fff;stroke:#263238;stroke-linecap:round;stroke-linejoin:round"></path><path d="M268.52,134.45A1.84,1.84,0,1,1,266,134,1.84,1.84,0,0,1,268.52,134.45Z" style="fill:#fff;stroke:#263238;stroke-linecap:round;stroke-linejoin:round"></path><path d="M277.61,124.81a1.58,1.58,0,1,1-2.19-.4A1.57,1.57,0,0,1,277.61,124.81Z" style="fill:#fff;stroke:#263238;stroke-linecap:round;stroke-linejoin:round"></path><path d="M267.07,123.18a.87.87,0,0,1-.22,1.22.88.88,0,0,1-1-1.44A.87.87,0,0,1,267.07,123.18Z" style="fill:#fff;stroke:#263238;stroke-linecap:round;stroke-linejoin:round"></path><path d="M285.38,119.39a1.58,1.58,0,1,1-2.2-.39A1.58,1.58,0,0,1,285.38,119.39Z" style="fill:#fff;stroke:#263238;stroke-linecap:round;stroke-linejoin:round"></path><path d="M249.84,183.42s-32.61-22.68-49.68-48.4" style="fill:none;stroke:#263238;stroke-linecap:round;stroke-linejoin:round"></path><path d="M200.31,139.73A1.93,1.93,0,0,1,202,143.2a1.93,1.93,0,1,1-1.69-3.47Z" style="fill:#fff;stroke:#263238;stroke-linecap:round;stroke-linejoin:round"></path><path d="M193.68,128.92a2.45,2.45,0,1,1-1.13,3.28A2.44,2.44,0,0,1,193.68,128.92Z" style="fill:#fff;stroke:#263238;stroke-linecap:round;stroke-linejoin:round"></path><path d="M199.28,133.21a1.75,1.75,0,1,1,1.54,3.15,1.75,1.75,0,0,1-1.54-3.15Z" style="fill:#fff;stroke:#263238;stroke-linecap:round;stroke-linejoin:round"></path><path d="M209,150.33a2.63,2.63,0,1,1-1.22,3.51A2.62,2.62,0,0,1,209,150.33Z" style="fill:#fff;stroke:#263238;stroke-linecap:round;stroke-linejoin:round"></path><path d="M205.32,141.19a1.93,1.93,0,1,1-.89,2.58A1.92,1.92,0,0,1,205.32,141.19Z" style="fill:#fff;stroke:#263238;stroke-linecap:round;stroke-linejoin:round"></path><path d="M202.6,131.21a.69.69,0,0,1,.93.32.7.7,0,1,1-.93-.32Z" style="fill:#fff;stroke:#263238;stroke-linecap:round;stroke-linejoin:round"></path><path d="M218.33,156.69a1.58,1.58,0,1,1-.73,2.11A1.58,1.58,0,0,1,218.33,156.69Z" style="fill:#fff;stroke:#263238;stroke-linecap:round;stroke-linejoin:round"></path><path d="M209.83,144.85a1.57,1.57,0,1,1-.73,2.1A1.57,1.57,0,0,1,209.83,144.85Z" style="fill:#fff;stroke:#263238;stroke-linecap:round;stroke-linejoin:round"></path><path d="M191.05,125.91a1.4,1.4,0,1,1-.65,1.88A1.4,1.4,0,0,1,191.05,125.91Z" style="fill:#fff;stroke:#263238;stroke-linecap:round;stroke-linejoin:round"></path><path d="M220.32,160.79a2.63,2.63,0,1,1-1.21,3.52A2.64,2.64,0,0,1,220.32,160.79Z" style="fill:#fff;stroke:#263238;stroke-linecap:round;stroke-linejoin:round"></path><path d="M229.55,163.71a3.33,3.33,0,1,1-1.54,4.45A3.32,3.32,0,0,1,229.55,163.71Z" style="fill:#fff;stroke:#263238;stroke-linecap:round;stroke-linejoin:round"></path><path d="M223.88,157.89a1.84,1.84,0,0,1,1.62,3.31,1.84,1.84,0,1,1-1.62-3.31Z" style="fill:#fff;stroke:#263238;stroke-linecap:round;stroke-linejoin:round"></path><path d="M215.76,147.42a1.57,1.57,0,1,1-.73,2.11A1.57,1.57,0,0,1,215.76,147.42Z" style="fill:#fff;stroke:#263238;stroke-linecap:round;stroke-linejoin:round"></path><path d="M212.52,157.58a.86.86,0,0,1,1.17.4.88.88,0,1,1-1.17-.4Z" style="fill:#fff;stroke:#263238;stroke-linecap:round;stroke-linejoin:round"></path><path d="M211.61,138.9a1.58,1.58,0,1,1,1.38,2.84,1.58,1.58,0,0,1-1.38-2.84Z" style="fill:#fff;stroke:#263238;stroke-linecap:round;stroke-linejoin:round"></path><path d="M218,178.59s-14.31-22.25-17.89-31-14.7-31.39-17.88-38.15S177,98.32,177,98.32l-10.73,6.36s13.9,30.59,19.87,39.34,16.69,30.2,21.06,35.76,9.93,13.11,16.29,16.69,15.89,2.39,17.48,2S218,178.59,218,178.59Z" style="fill:#fff;stroke:#263238;stroke-linecap:round;stroke-linejoin:round"></path><path d="M307.75,133.68l5.57,4S299,169.05,291.06,181s-11.12,18.28-16.69,20.27-15.49,2-15.49,2,17.88-17.49,25-27.82S307.75,133.68,307.75,133.68Z" style="fill:#fff;stroke:#263238;stroke-linecap:round;stroke-linejoin:round"></path><path d="M288.28,135.67s8.75-2.38,11.92-3.18,12.72-8.74,12.72-8.74S300.6,150,297.82,157.53s-14.7,27-20.27,35-11.12,10.33-15.1,10.73-8.34.39-12.32.39-6.35.4-8.34,0-7.15-4.76-7.15-4.76-8.75-11.13-7.16-19.08,13.51-16.69,24.64-22.65,27.82-17.48,29.41-18.28S288.28,135.67,288.28,135.67Z" style="fill:#fff;stroke:#263238;stroke-linecap:round;stroke-linejoin:round"></path><path d="M234.64,198.86S217.55,181.37,214,175.81s9.94-17.88,13.91-20.27,31.39-13.11,40.53-16.29,25-5.57,25-5.57a302.68,302.68,0,0,0-31.39,21.86c-15.9,12.72-23.45,14.31-27.42,22.25S234.64,198.86,234.64,198.86Z" style="fill:#fff;stroke:#263238;stroke-linecap:round;stroke-linejoin:round"></path><path d="M241.79,202s-21.06-9.93-25-13.11-21.45-20.27-26.62-29.41-25-41.32-25-41.32,20.27,41.72,26.23,51.26,16.29,31.79,22.25,35S239,208,241.79,202Z" style="fill:#fff;stroke:#263238;stroke-linecap:round;stroke-linejoin:round"></path><polygon points="235.72 272.37 234.13 302.17 237.7 302.96 237.7 271.57 235.72 272.37" style="fill:#263238;stroke:#263238;stroke-linecap:round;stroke-linejoin:round"></polygon><polygon points="241.28 274.35 244.06 301.77 247.64 302.57 242.07 269.58 241.28 272.76 241.28 274.35" style="fill:#263238;stroke:#263238;stroke-linecap:round;stroke-linejoin:round"></polygon><polygon points="249.62 302.96 246.84 271.57 249.23 271.17 252.8 302.57 249.62 302.96" style="fill:#263238;stroke:#263238;stroke-linecap:round;stroke-linejoin:round"></polygon><polygon points="252.01 270.78 250.42 306.94 253.6 307.73 254 271.17 252.01 270.78" style="fill:#263238;stroke:#263238;stroke-linecap:round;stroke-linejoin:round"></polygon><polygon points="237.7 276.34 240.09 304.95 243.66 306.14 239.29 272.76 237.7 276.34" style="fill:#263238;stroke:#263238;stroke-linecap:round;stroke-linejoin:round"></polygon><path d="M231.85,206.41s-7.26,52-8.06,60.39-1.19,16.69-1.19,16.69l8-5.56a56.2,56.2,0,0,1,11.13,3.18c6,2.38,11.12,3.57,17.08,2s10.34-2.78,10.34-2.78l.39-13.51,5.17-8.34s-6.64-52-14.19-60.4S234.64,202,231.85,206.41Z" style="fill:#fff;stroke:#263238;stroke-linecap:round;stroke-linejoin:round"></path><path d="M269.49,266.8s-9.93,4-17.48,4a116.8,116.8,0,0,0-19.47,2c-1.2.4-.8-5.16,6-13.91s9.65-50.06,10.44-55.23" style="fill:#fff;stroke:#263238;stroke-linecap:round;stroke-linejoin:round"></path><line x1="232.54" y1="272.76" x2="223.4" y2="275.94" style="fill:#fff;stroke:#263238;stroke-linecap:round;stroke-linejoin:round"></line><path d="M177.81,249.5l15.75-6.11s31.18-31.18,34.39-32.14,43.72-8.68,46.93-8.36,5.47,2.57,5.47,4.82,4.17,18.65,3.85,20.9a5,5,0,0,1-1.6,3.21s0,5.79-.33,9.32a21.55,21.55,0,0,1-1.92,6.75s.32,6.43-.65,10a30.57,30.57,0,0,1-3.53,7.39s.64,9-1,12.54-7.39,8-12.21,8.35-15.43,1.61-16.4,1.61-16.39,4.82-22.17,6.11-20.9,1.93-20.9,1.93-13.82,1.93-19.6,1a69.34,69.34,0,0,1-9.65-2.25Z" style="fill:#fff;stroke:#263238;stroke-linecap:round;stroke-linejoin:round"></path><path d="M252.06,221.21s21.86,5.47,25.71,6.11a6.32,6.32,0,0,1,4.83,4.5" style="fill:none;stroke:#263238;stroke-linecap:round;stroke-linejoin:round"></path><line x1="269.09" y1="225.39" x2="277.77" y2="219.61" style="fill:none;stroke:#263238;stroke-linecap:round;stroke-linejoin:round"></line><polyline points="248.84 239.22 254.31 241.79 280.35 247.89" style="fill:none;stroke:#263238;stroke-linecap:round;stroke-linejoin:round"></polyline><polyline points="247.24 258.18 251.09 261.07 276.17 265.25" style="fill:none;stroke:#263238;stroke-linecap:round;stroke-linejoin:round"></polyline><line x1="246.59" y1="287.75" x2="235.02" y2="288.07" style="fill:none;stroke:#263238;stroke-linecap:round;stroke-linejoin:round"></line><polygon points="183.27 244.36 180.38 302.22 159.49 300.93 164.31 243.07 183.27 244.36" style="fill:#fff;stroke:#263238;stroke-linecap:round;stroke-linejoin:round"></polygon><path d="M26.47,312.82l138.8-1.28,5.79-68.47-135-21.76a153.18,153.18,0,0,0-5.45,47C31.81,297.47,26.47,312.82,26.47,312.82Z" style="fill:#263238"></path><polyline points="26.47 312.82 165.27 311.54 171.06 243.07 36.1 221.31" style="fill:none;stroke:#263238;stroke-linecap:round;stroke-linejoin:round"></polyline></g></svg>